<svg xmlns="http://www.w3.org/2000/svg" xmlns:svg="http://www.w3.org/2000/svg" id="svg360" width="704.233" height="419.903" overflow="hidden" version="1.1" style="overflow:hidden"><metadata id="metadata364"/><defs id="defs236"><clipPath id="clip0"><path id="path188" d="M 0,0 H 1280 V 720 H 0 Z" style="clip-rule:evenodd;fill-rule:evenodd"/></clipPath><clipPath id="clip1"><path id="path191" d="m 324,219 h 75 v 75 h -75 z" style="clip-rule:evenodd;fill-rule:evenodd"/></clipPath><clipPath id="clip2"><path id="path194" d="m 324,219 h 75 v 75 h -75 z" style="clip-rule:evenodd;fill-rule:evenodd"/></clipPath><clipPath id="clip3"><path id="path197" d="m 324,219 h 75 v 75 h -75 z" style="clip-rule:evenodd;fill-rule:evenodd"/></clipPath><clipPath id="clip4"><path id="path200" d="m 791,315 h 96 v 96 h -96 z" style="clip-rule:evenodd;fill-rule:evenodd"/></clipPath><clipPath id="clip5"><path id="path203" d="m 791,315 h 96 v 96 h -96 z" style="clip-rule:evenodd;fill-rule:evenodd"/></clipPath><clipPath id="clip6"><path id="path206" d="m 791,315 h 96 v 96 h -96 z" style="clip-rule:evenodd;fill-rule:evenodd"/></clipPath><clipPath id="clip7"><path id="path209" d="m 791,450 h 96 v 96 h -96 z" style="clip-rule:evenodd;fill-rule:evenodd"/></clipPath><clipPath id="clip8"><path id="path212" d="m 791,450 h 96 v 96 h -96 z" style="clip-rule:evenodd;fill-rule:evenodd"/></clipPath><clipPath id="clip9"><path id="path215" d="m 791,450 h 96 v 96 h -96 z" style="clip-rule:evenodd;fill-rule:evenodd"/></clipPath><clipPath id="clip10"><path id="path218" d="m 455,450 h 96 v 96 h -96 z" style="clip-rule:evenodd;fill-rule:evenodd"/></clipPath><clipPath id="clip11"><path id="path221" d="m 455,450 h 96 v 96 h -96 z" style="clip-rule:evenodd;fill-rule:evenodd"/></clipPath><clipPath id="clip12"><path id="path224" d="m 455,450 h 96 v 96 h -96 z" style="clip-rule:evenodd;fill-rule:evenodd"/></clipPath><clipPath id="clip13"><path id="path227" d="m 455,314 h 96 v 96 h -96 z" style="clip-rule:evenodd;fill-rule:evenodd"/></clipPath><clipPath id="clip14"><path id="path230" d="m 455,314 h 96 v 96 h -96 z" style="clip-rule:evenodd;fill-rule:evenodd"/></clipPath><clipPath id="clip15"><path id="path233" d="m 455,314 h 96 v 96 h -96 z" style="clip-rule:evenodd;fill-rule:evenodd"/></clipPath></defs><g id="g358" clip-path="url(#clip0)" transform="translate(-229.14378,-176.41357)"><rect id="rect238" width="704.233" height="419.903" x="229.144" y="176.414" style="fill:#fff;stroke-width:.5664497"/><path id="path240" stroke-miterlimit="8" d="m 310.5,257 c 0,-27.338 23.281,-49.5 52,-49.5 28.719,0 52,22.162 52,49.5 0,27.338 -23.281,49.5 -52,49.5 -28.719,0 -52,-22.162 -52,-49.5 z" style="fill:none;fill-rule:evenodd;stroke:#000;stroke-width:6.66666985;stroke-miterlimit:8"/><g id="g250" clip-path="url(#clip1)"><g id="g248" clip-path="url(#clip2)"><g id="g246" clip-path="url(#clip3)"><path id="path242" d="m 374,242.438 c 0,6.903 -5.596,12.5 -12.5,12.5 -6.904,0 -12.5,-5.597 -12.5,-12.5 0,-6.904 5.596,-12.5 12.5,-12.5 6.904,0 12.5,5.596 12.5,12.5 z"/><path id="path244" d="m 386.5,283.063 v -12.5 c 0,-1.875 -0.937,-3.75 -2.5,-5 -3.437,-2.813 -7.812,-4.688 -12.187,-5.938 -3.125,-0.937 -6.563,-1.562 -10.313,-1.562 -3.437,0 -6.875,0.625 -10.312,1.562 -4.375,1.25 -8.75,3.438 -12.188,5.938 -1.562,1.25 -2.5,3.125 -2.5,5 v 12.5 z"/></g></g></g><g id="g264" clip-path="url(#clip4)"><g id="g262" clip-path="url(#clip5)"><g id="g260" clip-path="url(#clip6)"><path id="path252" d="m 867,333 c 0,4.418 -12.536,8 -28,8 -15.464,0 -28,-3.582 -28,-8 0,-4.418 12.536,-8 28,-8 15.464,0 28,3.582 28,8 z"/><path id="path254" d="m 859,353 c -1.2,0 -2,-0.8 -2,-2 0,-1.2 0.8,-2 2,-2 1.2,0 2,0.8 2,2 0,1.2 -0.8,2 -2,2 z m -20,-8 c -15.4,0 -28,-3.6 -28,-8 v 16 c 0,4.4 12.6,8 28,8 15.4,0 28,-3.6 28,-8 v -16 c 0,4.4 -12.6,8 -28,8 z"/><path id="path256" d="m 859,373 c -1.2,0 -2,-0.8 -2,-2 0,-1.2 0.8,-2 2,-2 1.2,0 2,0.8 2,2 0,1.2 -0.8,2 -2,2 z m -20,-8 c -15.4,0 -28,-3.6 -28,-8 v 16 c 0,4.4 12.6,8 28,8 15.4,0 28,-3.6 28,-8 v -16 c 0,4.4 -12.6,8 -28,8 z"/><path id="path258" d="m 859,393 c -1.2,0 -2,-0.8 -2,-2 0,-1.2 0.8,-2 2,-2 1.2,0 2,0.8 2,2 0,1.2 -0.8,2 -2,2 z m -20,-8 c -15.4,0 -28,-3.6 -28,-8 v 16 c 0,4.4 12.6,8 28,8 15.4,0 28,-3.6 28,-8 v -16 c 0,4.4 -12.6,8 -28,8 z"/></g></g></g><text id="text266" font-size="24" font-weight="400" transform="translate(779.1,432)" style="font-weight:400;font-size:24px;font-family:Calibri,Calibri_MSFontService,sans-serif">Profile Store</text><g id="g280" clip-path="url(#clip7)"><g id="g278" clip-path="url(#clip8)"><g id="g276" clip-path="url(#clip9)"><path id="path268" d="m 867,468 c 0,4.418 -12.536,8 -28,8 -15.464,0 -28,-3.582 -28,-8 0,-4.418 12.536,-8 28,-8 15.464,0 28,3.582 28,8 z"/><path id="path270" d="m 859,488 c -1.2,0 -2,-0.8 -2,-2 0,-1.2 0.8,-2 2,-2 1.2,0 2,0.8 2,2 0,1.2 -0.8,2 -2,2 z m -20,-8 c -15.4,0 -28,-3.6 -28,-8 v 16 c 0,4.4 12.6,8 28,8 15.4,0 28,-3.6 28,-8 v -16 c 0,4.4 -12.6,8 -28,8 z"/><path id="path272" d="m 859,508 c -1.2,0 -2,-0.8 -2,-2 0,-1.2 0.8,-2 2,-2 1.2,0 2,0.8 2,2 0,1.2 -0.8,2 -2,2 z m -20,-8 c -15.4,0 -28,-3.6 -28,-8 v 16 c 0,4.4 12.6,8 28,8 15.4,0 28,-3.6 28,-8 v -16 c 0,4.4 -12.6,8 -28,8 z"/><path id="path274" d="m 859,528 c -1.2,0 -2,-0.8 -2,-2 0,-1.2 0.8,-2 2,-2 1.2,0 2,0.8 2,2 0,1.2 -0.8,2 -2,2 z m -20,-8 c -15.4,0 -28,-3.6 -28,-8 v 16 c 0,4.4 12.6,8 28,8 15.4,0 28,-3.6 28,-8 v -16 c 0,4.4 -12.6,8 -28,8 z"/></g></g></g><text id="text282" font-size="24" font-weight="400" transform="translate(790.407,565)" style="font-weight:400;font-size:24px;font-family:Calibri,Calibri_MSFontService,sans-serif">Cart Store</text><path id="path284" stroke-miterlimit="8" d="M 0,0 1.04987e-4,194.703" transform="matrix(-1,-8.74228e-8,-8.74228e-8,1,362.5,306.5)" style="fill:none;fill-rule:evenodd;stroke:#000;stroke-width:5.33333015;stroke-miterlimit:8"/><path id="path286" stroke-miterlimit="8" d="M 0,0 96.1376,1.04987e-4" transform="matrix(-1,-8.74228e-8,-8.74228e-8,1,455.638,498.5)" style="fill:none;fill-rule:evenodd;stroke:#000;stroke-width:5.33333015;stroke-miterlimit:8"/><path id="path288" stroke-miterlimit="8" d="M 0,0 93.5798,1.04987e-4" transform="matrix(-1,-8.74228e-8,-8.74228e-8,1,456.08,363.5)" style="fill:none;fill-rule:evenodd;stroke:#000;stroke-width:5.33333015;stroke-miterlimit:8"/><g id="g300" clip-path="url(#clip10)"><g id="g298" clip-path="url(#clip11)"><g id="g296" clip-path="url(#clip12)"><path id="path290" d="m 486,481 h -11 v -7 h 11 z m 15,-7 v 7 h -11 v -7 z m 15,0 v 7 h -11 v -7 z m 15,0 v 7 h -11 v -7 z m 0,18 h -11 v -7 h 11 z m 0,8.5 -11,1 V 496 h 11 z M 486,496 v 8.5 l -11,1 V 496 Z m 0,-4 h -11 v -7 h 11 z m 15,0 h -11 v -7 h 11 z m 4,0 v -7 h 11 v 7 z m -4,11.2 -11,1 V 496 h 11 z m 4,-7.2 h 11 v 5.8 l -11,1 z m 32,10 v -38 h -62 v -1 c 0,-5 -4,-9 -9,-9 -1.7,0 -3,1.3 -3,3 0,1.7 1.3,3 3,3 1.7,0 3,1.3 3,3 v 50 c 0,5 4,9 9,9 h 3 44 9 c 1.7,0 3,-1.3 3,-3 0,-1.7 -1.3,-3 -3,-3 h -56 c -1.7,0 -3,-1.3 -3,-3 v -5.5 z"/><path id="path292" d="m 487,532 c 0,3.314 -2.686,6 -6,6 -3.314,0 -6,-2.686 -6,-6 0,-3.314 2.686,-6 6,-6 3.314,0 6,2.686 6,6 z"/><path id="path294" d="m 531,532 c 0,3.314 -2.686,6 -6,6 -3.314,0 -6,-2.686 -6,-6 0,-3.314 2.686,-6 6,-6 3.314,0 6,2.686 6,6 z"/></g></g></g><text id="text302" font-size="24" font-weight="400" transform="translate(482.971,565)" style="font-weight:400;font-size:24px;font-family:Calibri,Calibri_MSFontService,sans-serif">Cart</text><g id="g326" clip-path="url(#clip13)"><g id="g324" clip-path="url(#clip14)"><g id="g322" clip-path="url(#clip15)"><path id="path304" d="m 478,328 h 50 v 68 h -50 z m -6,74 h 62 v -80 h -62 z"/><path id="path306" d="m 485,334 h 8 v 8 h -8 z"/><path id="path308" d="m 501,336 h 20 v 4 h -20 z"/><path id="path310" d="m 485,350 h 8 v 8 h -8 z"/><path id="path312" d="m 501,352 h 20 v 4 h -20 z"/><path id="path314" d="m 485,366 h 8 v 8 h -8 z"/><path id="path316" d="m 501,368 h 20 v 4 h -20 z"/><path id="path318" d="m 485,382 h 8 v 8 h -8 z"/><path id="path320" d="m 501,384 h 20 v 4 h -20 z"/></g></g></g><text id="text328" font-size="24" font-weight="400" transform="translate(470.195,430)" style="font-weight:400;font-size:24px;font-family:Calibri,Calibri_MSFontService,sans-serif">Profile</text><rect id="rect330" width="142" height="66" x="600.5" y="466.5" stroke-miterlimit="8" style="fill:none;stroke:#000;stroke-width:2.66667008;stroke-miterlimit:8"/><text id="text336" font-size="24" font-weight="400" transform="translate(633.793,492)" style="font-weight:400;font-size:24px;font-family:Calibri,Calibri_MSFontService,sans-serif">Storage<tspan id="tspan332" x="-4.133" y="29">Provide</tspan> <tspan id="tspan334" x="69.707" y="29">r</tspan></text><path id="path338" d="m 548.833,361.833 h 35.749 v 3.334 h -35.749 z m 1.667,6.667 -10,-5 10,-5 z m 32.416,-10 10,5 -10,5 z"/><path id="path340" d="m 550.833,495.833 h 35.749 v 3.334 h -35.749 z m 1.667,6.667 -10,-5 10,-5 z m 32.416,-10 10,5 -10,5 z"/><path id="path342" d="m 758.833,359.833 h 35.749 v 3.334 h -35.749 z m 1.667,6.667 -10,-5 10,-5 z m 32.416,-10 10,5 -10,5 z"/><path id="path344" d="m 758.833,499.833 h 35.749 v 3.334 h -35.749 z m 1.667,6.667 -10,-5 10,-5 z m 32.416,-10 10,5 -10,5 z"/><text id="text348" font-size="24" font-weight="400" transform="translate(257.18,330)" style="font-weight:400;font-size:24px;font-family:Calibri,Calibri_MSFontService,sans-serif">UserGrai<tspan id="tspan346" x="85.007" y="0">n</tspan></text><rect id="rect350" width="142" height="65" x="600.5" y="331.5" stroke-miterlimit="8" style="fill:none;stroke:#000;stroke-width:2.66667008;stroke-miterlimit:8"/><text id="text356" font-size="24" font-weight="400" transform="translate(633.793,357)" style="font-weight:400;font-size:24px;font-family:Calibri,Calibri_MSFontService,sans-serif">Storage<tspan id="tspan352" x="-4.133" y="29">Provide</tspan> <tspan id="tspan354" x="69.707" y="29">r</tspan></text></g></svg>