<svg xmlns="http://www.w3.org/2000/svg" xmlns:svg="http://www.w3.org/2000/svg" id="svg3336" width="340" height="340" version="1.1" viewBox="0 0 340 340"><metadata id="metadata3354"/><title id="title3338">Orleans Logo Only</title><desc id="desc3340">Created with Sketch.</desc><g id="Page-1" transform="translate(-228,-337)" style="fill:none;fill-rule:evenodd;stroke:none;stroke-width:1"><g id="Orleans-1"><g id="g3346" transform="translate(255.53882,342.5)"><path id="Combined-Shape" d="m 142.46118,0 142.46118,82.25 0,164.5 L 142.46118,329 0,246.75 0,82.25 142.46118,0 Z m -0.48781,71 80.97338,46.75 0,93.5 L 141.97337,258 61,211.25 61,117.75 141.97337,71 Z" style="fill:#68217a"/><polygon id="Path-1" points="222.46 117.897 222.849 211.348 284.37 246.834 284.37 82.264 142 0 142 71.117" style="fill:#783988"/><polygon id="Path-1-Copy" points="80.46 199.897 80.849 293.348 142.37 328.834 142.37 164.264 0 82 0 153.117" transform="matrix(-1,0,0,-1,142.37,410.83443)" style="fill:#783988"/></g></g></g></svg>